<svg xmlns="http://www.w3.org/2000/svg" version="1.1" x="0" y="0" width="272" height="176" viewBox="344 192 272 176" xml:space="preserve">
  <style type="text/css">
    
	.st0{display:inline;fill:#ED1C24;}
	.st1{fill:#FFFFFF;}
	.st2{fill:none;}
	.st3{display:none;}

  </style>
  <g class="st3">
    <rect x="407" y="191" class="st0" width="184" height="246"/>
  </g>
  <path class="st2" d="M345 369c0-58.7 0-117.3 0-176 90.7 0 181.3 0 272 0 0 58.7 0 117.3 0 176C526.3 369 435.7 369 345 369zM541 278L541 278c-5.7 16.7-11.4 33.4-17.1 50.1 -0.2 0.6-0.6 1.1-1.4 1.1 -0.3-0.2-0.7-0.2-0.9-0.5 -0.6-0.8-1.3-1.5-1.8-2.4 -6.2-11.9-16.1-19.2-28.6-23.5 -4.9-1.7-7.3-5.3-6.9-10.4 0.7-9.8 1.5-19.6 2.6-29.3 0.5-4.4-0.3-9.1 2.3-13.2 4.7-1.8 9.7-1.9 14.6-2.6 19.1-2.5 38.6-1.8 57.6-5 1.8-0.3 3.4-0.3 2.9-2.8 -1.1-1.3-2.6-1.4-4.1-1.6 -20.8-2.2-41.7-4.5-62.7-5.1 -15-0.4-30 0-45-0.2 -14-0.1-27.9 0.9-41.9 2.2 -5.5 0.5-10.9 1.5-16.3 2.4 -1.8 0.3-4.3 0.6-3.1 3.7 12.6 3.1 25.3 3.9 38.1 4.3 9.1 0.3 18.3 0.9 27.3 2.7 8 1.6 9.4 3.3 10.1 11.7 0.7 8.3 1.4 16.6 2.5 24.8 1.4 10.5 0.2 13.1-9.5 17.5 -9.2 4.2-16.6 10.5-22.2 18.8 -0.7 1-0.8 2.6-2.7 2.7C429.7 308.8 424.7 294.3 419.4 279c7.8-3.8 16.8 1.7 24.1-2.4 1.6-3.1 0.4-5-1.8-6.4 -1.7-1.1-3.6-1.6-5.7-1.8 -10.9-1-21.9-2-32.8-3 -13.1-1.2-19.1-6.5-21.9-19.3 -1-4.7-2.1-9.4-3.3-14.1 -1.9-7.3-4.9-14.2-9.6-20.2 -4.1-5.1-8.4-6.5-14-4.3 0.1 0.6-0.1 1.3 0.2 1.8 5 7.5 5.9 16.1 7.1 24.7 1.3 9.6 2.2 19.2 3.6 28.7 1.2 8.5 5.8 14.4 14.5 16.5 0.8 0.2 1.6 0.4 1.8 1.3 -9.1 23.1-15.8 46.8-23.3 70.5 4.4 1.4 5.1-1 5.9-3.2 3.1-9 6.1-18 9.2-26.9 0.8-2.3 1.4-4.8 5.1-5.5 -0.8 4.5-1.7 8.7-2.3 12.9 -0.6 4.2-2.3 8.3-1.5 12.6 3.6 1.1 3.9-1.4 4.4-3.4 1.4-6 3.4-12 3.8-18.1 0.6-9.3 7.1-12.7 14.1-16.5 4.6 3.5 9 7.1 13.7 10.3 4.4 3 6.9 6.7 7.5 12.2 0.7 6.1 2.2 12.1 3.5 18.1 0.9 4.1 1.2 7.9-2.5 10.9 -0.9 0.8-1 2.1-0.1 3.5 3.5 2.2 6.5 0.8 8.8-2.3 2.8-3.7 5.3-7.7 7.7-11.2 1.5-1.2 3.4-0.1 4.4-1.5 0.9-1.6-0.4-3.3 0.2-4.9 9.5-16.2 19.3-24 33.2-26.1 0.4 10.4-3 20.7-0.7 32.1 6.8-4.1 5-10.2 6.2-15.2 1.3-5.4 0.7-11.2 2.9-16.6 4.8 0.4 8.5 2.9 12.7 4 6.6 1.7 11.5 5.5 15.5 11.1 6.6 9.2 13.6 18.1 20.5 27 3.2 4.2 5.2 4.6 9.6 2.5 0.1-2.3-2.1-3.7-2.4-6.4 1.9-10 3.9-20.4 5.9-30.9 0.2-0.9 0.5-2.1 1.1-2.7 6.2-5.3 12.5-10.3 19-14.7 8.2 3.5 13.5 8.3 14.3 17.4 0.5 5.9 2.4 11.7 3.7 17.6 0.5 2.3 1.3 4.3 4.6 2.2 -1.4-8.4-2.7-16.9-4.1-25.4l0 0c2.8 1.3 4.2 3.5 5.1 6.4 2.9 8.9 5.9 17.7 8.9 26.5 0.8 2.3 1.5 4.9 5.9 3.3 -7.4-23.8-14.2-47.7-23.5-71 0.7-0.3 1.5-0.7 2.3-0.9 9.1-2.3 13.5-8.6 14.6-17.5 0.8-6.3 1.2-12.6 2.1-18.8 1.7-11.6 2-23.6 8.4-34.1 0.2-0.3-0.1-0.9-0.2-1.7 -4.3-1.3-8.1-0.5-11.4 2.6 -4.5 4.2-7.3 9.5-9.4 15.1 -2.8 7.2-4.4 14.7-6 22.1 -2.2 10.1-7.7 16.8-18.5 18 -1.5 0.2-3 0.4-4.4 0.6 -10.6 1-21.2 1.9-31.8 3 -3.6 0.4-6.8 1.4-8.1 5.2 0.5 3.4 2.9 4.2 5.5 4.2 4 0.1 8 0.1 12-0.3C536.1 276.5 538.6 276.6 541 278z"/>
  <path d="M582 314c1.4 8.5 2.8 17 4.1 25.4 -3.3 2.1-4.1 0.1-4.6-2.2 -1.3-5.8-3.1-11.7-3.7-17.6 -0.8-9-6.2-13.8-14.3-17.4 -6.5 4.4-12.8 9.4-19 14.7 -0.7 0.6-0.9 1.7-1.1 2.7 -2 10.4-4 20.9-5.9 30.9 0.3 2.7 2.5 4.1 2.4 6.4 -4.4 2.2-6.4 1.7-9.6-2.5 -6.9-9-13.9-17.9-20.5-27 -4-5.5-8.9-9.3-15.5-11.1 -4.1-1.1-7.9-3.5-12.7-4 -2.2 5.4-1.7 11.2-2.9 16.6 -1.2 5 0.6 11.1-6.2 15.2 -2.2-11.4 1.1-21.7 0.7-32.1 -13.9 2.2-23.7 9.9-33.2 26.1 -0.5 1.6 0.8 3.3-0.2 4.9 -1 1.5-2.9 0.4-4.4 1.5 -2.4 3.6-4.9 7.5-7.7 11.2 -2.3 3.1-5.2 4.5-8.8 2.3 -0.9-1.4-0.8-2.7 0.1-3.5 3.7-3 3.4-6.8 2.5-10.9 -1.3-6-2.8-12-3.5-18.1 -0.6-5.5-3-9.2-7.5-12.2 -4.7-3.2-9-6.8-13.7-10.3 -6.9 3.8-13.4 7.2-14.1 16.5 -0.4 6.1-2.4 12.1-3.8 18.1 -0.5 2-0.8 4.5-4.4 3.4 -0.8-4.3 0.9-8.4 1.5-12.5 0.6-4.2 1.5-8.4 2.3-12.9 -3.7 0.7-4.3 3.2-5.1 5.5 -3.1 9-6.1 18-9.2 26.9 -0.8 2.2-1.5 4.6-5.9 3.2 7.5-23.7 14.2-47.4 23.3-70.5 -0.2-0.9-1.1-1.1-1.8-1.3 -8.7-2.2-13.3-8-14.5-16.5 -1.4-9.5-2.3-19.2-3.6-28.7 -1.1-8.6-2.1-17.2-7.1-24.7 -0.3-0.5-0.2-1.2-0.2-1.8 5.6-2.1 10-0.8 14 4.3 4.7 6 7.7 12.8 9.6 20.2 1.2 4.7 2.3 9.4 3.3 14.1 2.8 12.8 8.8 18.1 21.9 19.3 10.9 1 21.9 2 32.8 3 2 0.2 3.9 0.7 5.7 1.8 2.2 1.4 3.3 3.2 1.8 6.4 -7.3 4.1-16.3-1.4-24.1 2.4 5.3 15.2 10.3 29.8 15.4 44.4 1.9-0.1 2-1.7 2.7-2.7 5.6-8.4 13-14.6 22.2-18.8 9.7-4.4 10.9-7.1 9.5-17.5 -1.1-8.2-1.9-16.5-2.5-24.8 -0.7-8.3-2-10.1-10.1-11.7 -9-1.8-18.1-2.4-27.3-2.7 -12.8-0.4-25.5-1.3-38.1-4.3 -1.1-3.1 1.3-3.3 3.1-3.6 5.4-0.9 10.8-1.9 16.3-2.4 13.9-1.3 27.9-2.4 41.9-2.2 15 0.1 30-0.3 45 0.2 21 0.6 41.8 2.9 62.7 5.1 1.5 0.2 3 0.3 4.1 1.6 0.5 2.5-1.1 2.5-2.9 2.8 -19.1 3.2-38.5 2.5-57.6 5 -4.9 0.6-9.9 0.8-14.6 2.6 -2.6 4.2-1.8 8.9-2.3 13.2 -1.1 9.8-1.9 19.5-2.6 29.3 -0.4 5.1 2 8.7 6.9 10.4 12.5 4.3 22.4 11.5 28.6 23.5 0.5 0.9 1.2 1.6 1.8 2.4 0.2 0.2 0.6 0.3 0.9 0.5 0.8 0 1.2-0.5 1.4-1.1 5.7-16.7 11.4-33.4 17.1-50.1l0 0c-2.4-1.4-4.9-1.6-7.7-1.2 -3.9 0.5-8 0.4-12 0.3 -2.6 0-5-0.8-5.5-4.2 1.3-3.8 4.5-4.8 8.1-5.2 10.6-1.1 21.2-2 31.8-3 1.5-0.1 3-0.4 4.4-0.6 10.8-1.2 16.3-7.9 18.5-18 1.6-7.5 3.2-15 6-22.1 2.2-5.6 4.9-10.9 9.4-15.1 3.4-3.1 7.1-3.9 11.4-2.6 0.1 0.8 0.4 1.4 0.2 1.7 -6.4 10.5-6.7 22.5-8.4 34.1 -0.9 6.2-1.4 12.6-2.1 18.8 -1.1 8.9-5.5 15.2-14.6 17.5 -0.8 0.2-1.5 0.6-2.3 0.9 9.2 23.3 16.1 47.1 23.5 71 -4.3 1.6-5.1-1-5.9-3.3 -3-8.8-6.1-17.6-8.9-26.5 -0.9-2.9-2.3-5.1-5.1-6.4L582 314zM421 299L421 299c-0.1-0.4-0.3-0.8-0.4-1.3 -0.1 0-0.1 0-0.2 0.1C420.6 298.2 420.8 298.6 421 299zM540 297c0.3-0.6 0.9-1.2 0.3-2.1C540.2 295.7 540.1 296.4 540 297L540 297zM385 284c-0.9 1.4-1.1 2.9-1.3 4.9 1.4-1.8 0.9-3.5 1.2-5L385 284zM540 302c-1.6 1.3-2.5 2.9-3 5.2C540 306.3 539.9 304.1 540 302c0.1-0.2 0.2-0.4 0.2-0.3C540.2 301.6 540.1 301.8 540 302zM424 309L424 309c-0.7-2-1.5-4-3.5-5.7C419.7 306.9 422.1 307.8 424 309zM584 312L584 312c-0.5-3.8-2.7-6.9-4.5-10.1C580.9 305.3 579 310.2 584 312zM421 310L421 310c1.7 10.1 3.4 20.3 5.2 30.9 5.4-5.7 6.6-11.2 3.1-17.4 -1-1.8-1.6-4-2.1-6.1C426.2 314 424.2 311.5 421 310zM407.1 239.6c12.8 2.9 105.5 3.3 137.7 0.9C498.9 235.3 453 234.7 407.1 239.6zM548.3 288.5c2.9 2.2 5.4 4.3 9.1 5.5 4.4-3.6 11.2-4.8 13.6-11.3 -6.5-6.7-14.2-3.6-21.1-5.5C549.4 281.4 548.9 284.7 548.3 288.5zM389.3 285.4c4.2 4.4 9.3 6.9 14.3 9.6 3.1-1.6 5.9-2.9 7.9-5.5 0.8-3.8-0.6-7.2-1.3-10.6C399.6 277.4 392.7 279.4 389.3 285.4zM533.4 344.9c2.1-12.4 4.1-23.9 6.1-35.4 -0.4-0.1-0.8-0.3-1.3-0.4 -7.4 7.4-7.5 18.1-11.8 26.9C528.8 338.9 530 342.1 533.4 344.9zM545 312.9c5.4-4.1 10.8-8.2 16.5-12.5 -2.1-1.4-3.3-2.5-5.4-2.4C550.7 301.3 543.6 303.6 545 312.9zM399.7 302.1c5 3.7 10 7.5 15.5 11.6 0.8-3.6-0.5-5.8-0.9-8.4 -3.4-2.2-6.8-4.5-10-6.6C402.1 299.2 400.7 299.9 399.7 302.1zM388.5 289.5c-0.4 6.7 5.4 7 7.9 10.2 1.7-0.9 3.2-1.1 3.7-3.1C396.9 293.9 393.4 291.6 388.5 289.5zM571.6 288.3c-4.6 2.5-8.4 4.5-11.7 7.7 1.5 1.2 2.5 2.3 4.7 2.1C566.8 295.4 572.3 295 571.6 288.3zM386.2 306.6c3.1-1.6 5.7-3 8-5.5 -2.1-1.8-3.8-3.5-6.3-4.2C386.4 300 386 303 386.2 306.6zM574.7 305.4c-0.6-3.8-0.6-6.7-2.4-9.7 -2.3 1.2-4.4 2.4-5.6 4.9C568.9 302.6 571.2 304.1 574.7 305.4zM546.6 301.3c2.7-2.5 5.8-2.6 6.9-6.1 -2-0.8-3.1-3-6-2.3C547.3 295.3 547 297.7 546.6 301.3zM413.5 301.4c0.3-3.3 0.2-5.7-1.8-7.7 -2 0.9-3.9 1.5-4.8 3.6C408.6 299 410.5 300.4 413.5 301.4zM380.5 303.9c-1.7 2.7-3.4 5.4-4.2 9.2C380.9 310.9 380 307.1 380.5 303.9zM544.1 285.4c0.7-1.8 1-2.9 0.4-5C544.1 282.4 543.5 283.5 544.1 285.4zM416.4 285.5c0.4-1.2 0.5-2.2-0.6-3.3C415.2 283.6 415.1 284.6 416.4 285.5zM576.1 283.9c-0.4-0.3-0.7-0.2-0.7 0.2 -0.1 1.1 0.1 2.2 1.1 3.1C576.9 286 576.7 284.9 576.1 283.9zM417.6 290.9c-0.5 0.4-0.7 0.9 0 1.4C417.6 291.8 417.6 291.3 417.6 290.9zM543.6 289.6c-0.8 0.1-0.3 0.6-0.2 0.9C543.4 290.2 543.5 290 543.6 289.6z"/>
  <path class="st1" d="M407.1 239.6c45.9-4.9 91.8-4.3 137.7 0.9C512.6 242.9 419.9 242.5 407.1 239.6z"/>
  <path class="st2" d="M548.3 288.5c0.5-3.8 1-7.1 1.6-11.4 7 1.9 14.6-1.2 21.1 5.5 -2.4 6.5-9.2 7.7-13.6 11.3C553.7 292.8 551.2 290.7 548.3 288.5z"/>
  <path class="st2" d="M389.3 285.4c3.4-6 10.3-8 21-6.4 0.6 3.4 2 6.8 1.3 10.6 -2 2.6-4.8 3.9-7.9 5.5C398.5 292.3 393.4 289.8 389.3 285.4z"/>
  <path class="st2" d="M533.4 344.9c-3.4-2.8-4.6-5.9-7-8.9 4.3-8.8 4.4-19.5 11.8-26.9 0.4 0.1 0.8 0.3 1.3 0.4C537.5 321 535.5 332.4 533.4 344.9z"/>
  <path class="st2" d="M421 310c3.2 1.5 5.2 3.9 6.1 7.4 0.6 2.1 1.1 4.2 2.1 6.1 3.5 6.3 2.3 11.7-3.1 17.4 -1.8-10.6-3.5-20.8-5.2-30.9H421z"/>
  <path class="st2" d="M545 312.9c-1.4-9.2 5.6-11.5 11.1-14.9 2.1-0.1 3.3 1 5.4 2.4C555.8 304.7 550.5 308.7 545 312.9z"/>
  <path class="st2" d="M399.7 302.1c1-2.2 2.4-2.9 4.5-3.3 3.2 2.1 6.6 4.3 10 6.6 0.4 2.6 1.7 4.8 0.9 8.4C409.7 309.6 404.7 305.8 399.7 302.1z"/>
  <path class="st2" d="M388.5 289.5c4.8 2.2 8.4 4.4 11.6 7.1 -0.5 1.9-2 2.2-3.7 3.1C393.9 296.5 388.2 296.2 388.5 289.5z"/>
  <path class="st2" d="M571.6 288.3c0.7 6.6-4.8 7.1-7 9.8 -2.2 0.2-3.2-0.9-4.7-2.1C563.2 292.9 567 290.8 571.6 288.3z"/>
  <path class="st2" d="M386.2 306.6c-0.2-3.6 0.3-6.6 1.7-9.7 2.5 0.7 4.2 2.4 6.3 4.2C391.9 303.5 389.3 305 386.2 306.6z"/>
  <path class="st2" d="M574.7 305.4c-3.5-1.3-5.8-2.8-8-4.8 1.2-2.5 3.3-3.6 5.6-4.9C574.1 298.7 574.2 301.6 574.7 305.4z"/>
  <path class="st2" d="M546.6 301.3c0.4-3.6 0.7-6 1-8.4 2.8-0.6 4 1.5 6 2.3C552.4 298.7 549.3 298.8 546.6 301.3z"/>
  <path class="st2" d="M413.5 301.4c-2.9-1-4.8-2.4-6.6-4.1 0.9-2.1 2.8-2.7 4.8-3.6C413.7 295.7 413.7 298.1 413.5 301.4z"/>
  <path class="st2" d="M584 312c-5-1.8-3.1-6.7-4.5-10.1C581.3 305.1 583.5 308.2 584 312L584 312z"/>
  <path class="st2" d="M380.5 303.9c-0.5 3.2 0.4 7-4.2 9.2C377.1 309.2 378.9 306.6 380.5 303.9z"/>
  <path class="st2" d="M424 309c-1.9-1.3-4.3-2.1-3.4-5.7 1.9 1.7 2.7 3.7 3.5 5.7H424z"/>
  <path class="st2" d="M540 302c-0.1 2.1 0 4.3-3 5.2C537.5 304.9 538.5 303.3 540 302L540 302z"/>
  <path class="st2" d="M544.1 285.4c-0.7-1.9 0-3 0.4-5C545.1 282.5 544.8 283.6 544.1 285.4z"/>
  <path class="st2" d="M416.4 285.5c-1.2-0.8-1.1-1.9-0.6-3.3C416.9 283.2 416.8 284.2 416.4 285.5z"/>
  <path class="st2" d="M576.1 283.9c0.6 1 0.7 2.1 0.4 3.3 -0.9-0.9-1.1-1.9-1.1-3.1C575.5 283.7 575.7 283.6 576.1 283.9z"/>
  <path class="st2" d="M385 284c-0.3 1.5 0.2 3.2-1.2 5 0.2-2 0.4-3.6 1.3-4.9L385 284z"/>
  <path class="st2" d="M417.6 290.9c0 0.4 0 0.9 0 1.4C416.9 291.8 417.1 291.3 417.6 290.9z"/>
  <path class="st2" d="M540 297c0.1-0.7 0.2-1.3 0.3-2.1C540.9 295.8 540.3 296.4 540 297L540 297z"/>
  <path class="st2" d="M543.6 289.6c-0.1 0.3-0.2 0.6-0.2 0.9C543.3 290.2 542.8 289.8 543.6 289.6z"/>
  <path class="st2" d="M421 299c-0.2-0.4-0.4-0.8-0.5-1.2 0.1 0 0.1 0 0.2-0.1 0.1 0.4 0.3 0.8 0.4 1.3H421z"/>
  <path class="st2" d="M540 302c0.1-0.2 0.2-0.4 0.1-0.3 0.1-0.1-0.1 0.1-0.2 0.3H540z"/>
  <path class="st2" d="M421 299L421 299 421 299z"/>
  <path class="st2" d="M385 284L385 284 385 284z"/>
  <path class="st2" d="M540 297L540 297 540 297z"/>
  <path class="st2" d="M421 310L421 310 421 310z"/>
  <path class="st2" d="M424 309L424 309 424 309z"/>
  <path class="st2" d="M541 278L541 278 541 278z"/>
  <path class="st2" d="M584 312L584 312 584 312z"/>
  <path class="st2" d="M582 314L582 314 582 314z"/>
</svg>